<svg preserveAspectRatio="none" width="100%" height="100%" overflow="visible" style="display: block;" viewBox="0 0 68.371 68.3707" fill="none" xmlns="http://www.w3.org/2000/svg">
<g id="Group">
<path id="Vector" d="M34.1858 34.1853L19.28 42.4464C19.04 42.0127 18.8189 41.5687 18.6166 41.1161L34.184 34.1853H34.1858Z" fill="var(--fill-0, white)"/>
<path id="Vector_2" d="M34.1853 34.1853L18.6161 41.1161C18.4138 40.6636 18.2321 40.2024 18.071 39.7327L34.1836 34.1853H34.1853Z" fill="var(--fill-0, white)"/>
<path id="Vector_3" d="M34.1851 34.1853L18.0708 39.7327C17.9097 39.2647 17.7691 38.7881 17.6491 38.3081L34.1851 34.1853Z" fill="var(--fill-0, white)"/>
<path id="Vector_4" d="M34.1854 34.1853L17.6494 38.3081C17.5294 37.8264 17.43 37.3413 17.3529 36.851L34.1837 34.1853H34.1854Z" fill="var(--fill-0, white)"/>
<path id="Vector_5" d="M34.1858 34.1853L17.3549 36.851C17.2778 36.3607 17.2212 35.8687 17.1869 35.3733L34.1875 34.1853H34.1858Z" fill="var(--fill-0, white)"/>
<path id="Vector_6" d="M34.1854 34.1856L17.1848 35.3736C17.1505 34.8781 17.1368 34.3827 17.1454 33.8873L34.1836 34.1856H34.1854Z" fill="var(--fill-0, white)"/>
<path id="Vector_7" d="M34.1849 34.1855L17.1466 33.8873C17.1552 33.3918 17.186 32.8964 17.2375 32.4027L34.1849 34.1838V34.1855Z" fill="var(--fill-0, white)"/>
<path id="Vector_8" d="M34.185 34.1855L17.2375 32.4043C17.289 31.9106 17.3627 31.4203 17.457 30.9335L34.185 34.1855Z" fill="var(--fill-0, white)"/>
<path id="Vector_9" d="M34.1857 34.1855L17.456 30.9335C17.5503 30.4467 17.6668 29.965 17.8023 29.4884L34.184 34.1855H34.1857Z" fill="var(--fill-0, white)"/>
<path id="Vector_10" d="M34.1855 34.1851L17.8038 29.4879C17.9409 29.0114 18.0987 28.5417 18.2752 28.0788L34.1855 34.1868V34.1851Z" fill="var(--fill-0, white)"/>
<path id="Vector_11" d="M34.1856 34.1856L18.2753 28.0776C18.4536 27.6147 18.6508 27.1605 18.8685 26.7147L34.1856 34.1856Z" fill="var(--fill-0, white)"/>
<path id="Vector_12" d="M34.185 34.1854L18.8679 26.7146C19.0856 26.2688 19.3222 25.8334 19.5776 25.4083L34.185 34.1854Z" fill="var(--fill-0, white)"/>
<path id="Vector_13" d="M34.185 34.1853L19.5775 25.4082C19.833 24.983 20.1073 24.5699 20.3987 24.1687L34.185 34.1853Z" fill="var(--fill-0, white)"/>
<path id="Vector_14" d="M34.1849 34.1855L20.3969 24.1689C20.6883 23.7678 20.9969 23.3804 21.3226 23.0049L34.1832 34.1855H34.1849Z" fill="var(--fill-0, white)"/>
<path id="Vector_15" d="M34.1855 34.1857L21.3232 23.0051C21.6489 22.6314 21.99 22.2714 22.3466 21.9268L34.1837 34.1857H34.1855Z" fill="var(--fill-0, white)"/>
<path id="Vector_16" d="M34.1858 34.1856L22.3469 21.9268C22.7035 21.5822 23.0755 21.2531 23.4612 20.9411L34.1858 34.1856Z" fill="var(--fill-0, white)"/>
<path id="Vector_17" d="M34.1852 34.1856L23.4607 20.9411C23.8464 20.6291 24.2441 20.3342 24.6555 20.0565L34.1852 34.1839V34.1856Z" fill="var(--fill-0, white)"/>
<path id="Vector_18" d="M34.1857 34.1854L24.656 20.0563C25.0674 19.7785 25.4891 19.5197 25.9229 19.2797L34.184 34.1854H34.1857Z" fill="var(--fill-0, white)"/>
<path id="Vector_19" d="M34.1854 34.1852L25.9225 19.2795C26.3563 19.0395 26.8003 18.8184 27.2528 18.6161L34.1837 34.1835H34.1854V34.1852Z" fill="var(--fill-0, white)"/>
<path id="Vector_20" d="M34.1854 34.1853L27.2529 18.6161C27.7054 18.4139 28.1666 18.2321 28.6363 18.071L34.1837 34.1836H34.1854V34.1853Z" fill="var(--fill-0, white)"/>
<path id="Vector_21" d="M34.1858 34.1854L28.6366 18.0728C29.1046 17.9117 29.5812 17.7711 30.0629 17.6511L34.1858 34.1871V34.1854Z" fill="var(--fill-0, white)"/>
<path id="Vector_22" d="M34.1854 34.185L30.0625 17.649C30.5443 17.529 31.0294 17.4296 31.5197 17.3525L34.1854 34.185Z" fill="var(--fill-0, white)"/>
<path id="Vector_23" d="M34.1851 34.1853L31.5194 17.3544C32.0097 17.2773 32.5017 17.2207 32.9971 17.1864L34.1851 34.187V34.1853Z" fill="var(--fill-0, white)"/>
<path id="Vector_24" d="M34.1849 34.1854L32.9969 17.1848C33.4924 17.1505 33.9878 17.1368 34.4832 17.1454L34.1849 34.1836V34.1854Z" fill="var(--fill-0, white)"/>
<path id="Vector_25" d="M34.1857 34.1852L34.484 17.1469C34.9794 17.1554 35.4748 17.1863 35.9685 17.2377L34.1874 34.1852H34.1857Z" fill="var(--fill-0, white)"/>
<path id="Vector_26" d="M34.1857 34.1854L35.9668 17.2379C36.4605 17.2894 36.9508 17.3631 37.4377 17.4574L34.1857 34.1854Z" fill="var(--fill-0, white)"/>
<path id="Vector_27" d="M34.1857 34.1856L37.4377 17.4576C37.9245 17.5519 38.4062 17.6685 38.8828 17.8039L34.1857 34.1856Z" fill="var(--fill-0, white)"/>
<path id="Vector_28" d="M34.1855 34.1855L38.8827 17.8038C39.3592 17.9409 39.8289 18.0987 40.2918 18.2752L34.1838 34.1855H34.1855Z" fill="var(--fill-0, white)"/>
<path id="Vector_29" d="M34.1855 34.1855L40.2918 18.2753C40.7547 18.4535 41.2089 18.6507 41.6547 18.8684L34.1838 34.1855H34.1855Z" fill="var(--fill-0, white)"/>
<path id="Vector_30" d="M34.1857 34.1857L41.6565 18.8685C42.1022 19.0863 42.5377 19.3228 42.9628 19.5783L34.1857 34.1857Z" fill="var(--fill-0, white)"/>
<path id="Vector_31" d="M34.1857 34.1851L42.9628 19.5777C43.388 19.8331 43.8011 20.1074 44.2022 20.3988L34.1857 34.1851Z" fill="var(--fill-0, white)"/>
<path id="Vector_32" d="M34.1857 34.1856L44.2022 20.3993C44.6034 20.6908 44.9908 20.9993 45.3662 21.325L34.1857 34.1856Z" fill="var(--fill-0, white)"/>
<path id="Vector_33" d="M34.1857 34.185L45.3662 21.3228C45.74 21.6485 46.1 21.9896 46.4446 22.3462L34.1857 34.1833V34.185Z" fill="var(--fill-0, white)"/>
<path id="Vector_34" d="M34.1857 34.1855L46.4446 22.3467C46.7892 22.7032 47.1183 23.0752 47.4303 23.4609L34.1857 34.1855Z" fill="var(--fill-0, white)"/>
<path id="Vector_35" d="M34.1857 34.1855L47.4286 23.4609C47.7406 23.8466 48.0353 24.2444 48.3132 24.6558L34.1857 34.1855Z" fill="var(--fill-0, white)"/>
<path id="Vector_36" d="M34.1855 34.1853L48.313 24.6556C48.5907 25.067 48.8496 25.4887 49.0896 25.9224L34.1838 34.1836H34.1855V34.1853Z" fill="var(--fill-0, white)"/>
<path id="Vector_37" d="M34.1857 34.185L49.0913 25.9239C49.3313 26.3576 49.5526 26.8016 49.7549 27.2542L34.1874 34.185H34.1857Z" fill="var(--fill-0, white)"/>
<path id="Vector_38" d="M34.1857 34.1853L49.753 27.2545C49.9553 27.707 50.137 28.1682 50.2983 28.6379L34.1857 34.1853Z" fill="var(--fill-0, white)"/>
<path id="Vector_39" d="M34.1855 34.1854L50.298 28.6379C50.4593 29.1059 50.5997 29.5825 50.7197 30.0642L34.1838 34.1871L34.1855 34.1854Z" fill="var(--fill-0, white)"/>
<path id="Vector_40" d="M34.1857 34.1851L50.7216 30.0623C50.8416 30.544 50.9412 31.0291 51.0183 31.5194L34.1857 34.1851Z" fill="var(--fill-0, white)"/>
<path id="Vector_41" d="M34.1855 34.1851L51.0163 31.5194C51.0936 32.0097 51.15 32.5017 51.1843 32.9971L34.1838 34.1851H34.1855Z" fill="var(--fill-0, white)"/>
<path id="Vector_42" d="M34.1857 34.1853L51.1863 32.9973C51.2206 33.4928 51.2343 33.9882 51.2256 34.4836L34.1874 34.1853H34.1857Z" fill="var(--fill-0, white)"/>
<path id="Vector_43" d="M34.1857 34.1853L51.2239 34.4836C51.2153 34.979 51.1846 35.4744 51.1332 35.9681L34.1857 34.187V34.1853Z" fill="var(--fill-0, white)"/>
<path id="Vector_44" d="M34.1857 34.1853L51.1332 35.9664C51.0816 36.4601 51.0079 36.9504 50.9136 37.4373L34.1857 34.1853Z" fill="var(--fill-0, white)"/>
<path id="Vector_45" d="M34.1857 34.1853L50.9136 37.4373C50.8193 37.9241 50.7029 38.4058 50.5673 38.8824L34.1857 34.1853Z" fill="var(--fill-0, white)"/>
<path id="Vector_46" d="M34.1857 34.1857L50.5673 38.8828C50.4303 39.3594 50.2726 39.8291 50.0959 40.2919L34.1857 34.1839V34.1857Z" fill="var(--fill-0, white)"/>
<path id="Vector_47" d="M34.1857 34.1853L50.0959 40.2933C49.9176 40.7561 49.7206 41.2104 49.5029 41.6561L34.1857 34.1853Z" fill="var(--fill-0, white)"/>
<path id="Vector_48" d="M34.1857 34.1853L49.5029 41.6561C49.285 42.1018 49.0486 42.5373 48.793 42.9624L34.1857 34.1853Z" fill="var(--fill-0, white)"/>
<path id="Vector_49" d="M34.1857 34.1853L48.793 42.9624C48.5376 43.3876 48.2633 43.8007 47.9719 44.2018L34.1857 34.1853Z" fill="var(--fill-0, white)"/>
<path id="Vector_50" d="M34.1857 34.1853L47.9719 44.2018C47.6806 44.603 47.3719 44.9904 47.0463 45.3658L34.1857 34.1853Z" fill="var(--fill-0, white)"/>
<path id="Vector_51" d="M34.1857 34.1853L47.0463 45.3658C46.7206 45.7396 46.3793 46.0996 46.0228 46.444L34.1857 34.1853Z" fill="var(--fill-0, white)"/>
<path id="Vector_52" d="M34.1857 34.1853L46.0228 46.444C45.6662 46.7887 45.2942 47.1179 44.9102 47.4299L34.1857 34.1853Z" fill="var(--fill-0, white)"/>
<path id="Vector_53" d="M34.1857 34.1853L44.9102 47.4299C44.5245 47.7419 44.1268 48.0367 43.7154 48.3143L34.1857 34.187V34.1853Z" fill="var(--fill-0, white)"/>
<path id="Vector_54" d="M34.1857 34.1857L43.7154 48.3131C43.304 48.5908 42.8822 48.8495 42.4485 49.0895L34.1874 34.1839H34.1857V34.1857Z" fill="var(--fill-0, white)"/>
<path id="Vector_55" d="M34.1857 34.1853L42.4468 49.091C42.0131 49.331 41.5691 49.552 41.1165 49.7543L34.1857 34.187V34.1853Z" fill="var(--fill-0, white)"/>
<path id="Vector_56" d="M34.1857 34.1853L41.1165 49.7527C40.664 49.955 40.2028 50.1367 39.7331 50.2979L34.1857 34.1853Z" fill="var(--fill-0, white)"/>
<path id="Vector_57" d="M34.1855 34.1857L39.7329 50.2982C39.2632 50.4595 38.7884 50.5999 38.3067 50.7199L34.1838 34.1839H34.1855V34.1857Z" fill="var(--fill-0, white)"/>
<path id="Vector_58" d="M34.1857 34.1853L38.3085 50.7213C37.8268 50.8413 37.3417 50.9407 36.8514 51.0179L34.1857 34.187V34.1853Z" fill="var(--fill-0, white)"/>
<path id="Vector_59" d="M34.1857 34.1853L36.8514 51.0179C36.3611 51.095 35.8691 51.1516 35.3737 51.1859L34.1857 34.1853Z" fill="var(--fill-0, white)"/>
<path id="Vector_60" d="M34.1849 34.1853L35.3729 51.1859C34.8775 51.22 34.382 51.2339 33.8866 51.2253L34.1849 34.187V34.1853Z" fill="var(--fill-0, white)"/>
<path id="Vector_61" d="M34.1854 34.1853L33.8871 51.2236C33.3917 51.215 32.8963 51.184 32.4025 51.1327L34.1837 34.1853H34.1854Z" fill="var(--fill-0, white)"/>
<path id="Vector_62" d="M34.1855 34.1853L32.4043 51.1327C31.9106 51.0813 31.4203 51.0076 30.9335 50.9133L34.1855 34.1853Z" fill="var(--fill-0, white)"/>
<path id="Vector_63" d="M34.185 34.1853L30.933 50.9133C30.4462 50.819 29.9644 50.7023 29.4879 50.567L34.185 34.1853Z" fill="var(--fill-0, white)"/>
<path id="Vector_64" d="M34.1851 34.1853L29.4879 50.567C29.0114 50.4299 28.5417 50.272 28.0788 50.0956L34.1868 34.1853H34.1851Z" fill="var(--fill-0, white)"/>
<path id="Vector_65" d="M34.1856 34.1853L28.0776 50.0956C27.6147 49.9173 27.1605 49.72 26.7147 49.5023L34.1856 34.1853Z" fill="var(--fill-0, white)"/>
<path id="Vector_66" d="M34.185 34.1853L26.7142 49.5023C26.2684 49.2847 25.833 49.048 25.4079 48.7927L34.185 34.1853Z" fill="var(--fill-0, white)"/>
<path id="Vector_67" d="M34.1851 34.1853L25.4079 48.7927C24.9828 48.5373 24.5696 48.263 24.1685 47.9716L34.1851 34.1853Z" fill="var(--fill-0, white)"/>
<path id="Vector_68" d="M34.1855 34.1853L24.1672 47.9716C23.766 47.68 23.3786 47.3716 23.0032 47.0459L34.1837 34.1853H34.1855Z" fill="var(--fill-0, white)"/>
<path id="Vector_69" d="M34.1858 34.1853L23.0052 47.0459C22.6315 46.72 22.2715 46.379 21.9269 46.0224L34.1858 34.1853Z" fill="var(--fill-0, white)"/>
<path id="Vector_70" d="M34.1852 34.1853L21.9264 46.0224C21.5818 45.6658 21.2527 45.2938 20.9407 44.9098L34.1852 34.1853Z" fill="var(--fill-0, white)"/>
<path id="Vector_71" d="M34.1858 34.1853L20.9412 44.9098C20.6292 44.5241 20.3343 44.1264 20.0566 43.715L34.184 34.1853H34.1858Z" fill="var(--fill-0, white)"/>
<path id="Vector_72" d="M34.1851 34.1853L20.056 43.715C19.7783 43.3036 19.5194 42.8801 19.2794 42.4464L34.1851 34.1853Z" fill="var(--fill-0, white)"/>
<g id="Group_2" filter="url(#filter0_f_3278_12212)">
<path id="Vector_73" d="M34.1858 34.1853L19.28 42.4464C19.04 42.0127 18.8189 41.5687 18.6166 41.1161L34.184 34.1853H34.1858Z" fill="var(--fill-0, white)"/>
<path id="Vector_74" d="M34.1853 34.1853L18.6161 41.1161C18.4138 40.6636 18.2321 40.2024 18.071 39.7327L34.1836 34.1853H34.1853Z" fill="var(--fill-0, white)"/>
<path id="Vector_75" d="M34.1851 34.1853L18.0708 39.7327C17.9097 39.2647 17.7691 38.7881 17.6491 38.3081L34.1851 34.1853Z" fill="var(--fill-0, white)"/>
<path id="Vector_76" d="M34.1854 34.1853L17.6494 38.3081C17.5294 37.8264 17.43 37.3413 17.3529 36.851L34.1837 34.1853H34.1854Z" fill="var(--fill-0, white)"/>
<path id="Vector_77" d="M34.1858 34.1853L17.3549 36.851C17.2778 36.3607 17.2212 35.8687 17.1869 35.3733L34.1875 34.1853H34.1858Z" fill="var(--fill-0, white)"/>
<path id="Vector_78" d="M34.1854 34.1856L17.1848 35.3736C17.1505 34.8781 17.1368 34.3827 17.1454 33.8873L34.1836 34.1856H34.1854Z" fill="var(--fill-0, white)"/>
<path id="Vector_79" d="M34.1849 34.1855L17.1466 33.8873C17.1552 33.3918 17.186 32.8964 17.2375 32.4027L34.1849 34.1838V34.1855Z" fill="var(--fill-0, white)"/>
<path id="Vector_80" d="M34.185 34.1855L17.2375 32.4043C17.289 31.9106 17.3627 31.4203 17.457 30.9335L34.185 34.1855Z" fill="var(--fill-0, white)"/>
<path id="Vector_81" d="M34.1857 34.1855L17.456 30.9335C17.5503 30.4467 17.6668 29.965 17.8023 29.4884L34.184 34.1855H34.1857Z" fill="var(--fill-0, white)"/>
<path id="Vector_82" d="M34.1855 34.1851L17.8038 29.4879C17.9409 29.0114 18.0987 28.5417 18.2752 28.0788L34.1855 34.1868V34.1851Z" fill="var(--fill-0, white)"/>
<path id="Vector_83" d="M34.1856 34.1856L18.2753 28.0776C18.4536 27.6147 18.6508 27.1605 18.8685 26.7147L34.1856 34.1856Z" fill="var(--fill-0, white)"/>
<path id="Vector_84" d="M34.185 34.1854L18.8679 26.7146C19.0856 26.2688 19.3222 25.8334 19.5776 25.4083L34.185 34.1854Z" fill="var(--fill-0, white)"/>
<path id="Vector_85" d="M34.185 34.1853L19.5775 25.4082C19.833 24.983 20.1073 24.5699 20.3987 24.1687L34.185 34.1853Z" fill="var(--fill-0, white)"/>
<path id="Vector_86" d="M34.1849 34.1855L20.3969 24.1689C20.6883 23.7678 20.9969 23.3804 21.3226 23.0049L34.1832 34.1855H34.1849Z" fill="var(--fill-0, white)"/>
<path id="Vector_87" d="M34.1855 34.1857L21.3232 23.0051C21.6489 22.6314 21.99 22.2714 22.3466 21.9268L34.1837 34.1857H34.1855Z" fill="var(--fill-0, white)"/>
<path id="Vector_88" d="M34.1858 34.1856L22.3469 21.9268C22.7035 21.5822 23.0755 21.2531 23.4612 20.9411L34.1858 34.1856Z" fill="var(--fill-0, white)"/>
<path id="Vector_89" d="M34.1852 34.1856L23.4607 20.9411C23.8464 20.6291 24.2441 20.3342 24.6555 20.0565L34.1852 34.1839V34.1856Z" fill="var(--fill-0, white)"/>
<path id="Vector_90" d="M34.1857 34.1854L24.656 20.0563C25.0674 19.7785 25.4891 19.5197 25.9229 19.2797L34.184 34.1854H34.1857Z" fill="var(--fill-0, white)"/>
<path id="Vector_91" d="M34.1854 34.1852L25.9225 19.2795C26.3563 19.0395 26.8003 18.8184 27.2528 18.6161L34.1837 34.1835H34.1854V34.1852Z" fill="var(--fill-0, white)"/>
<path id="Vector_92" d="M34.1854 34.1853L27.2529 18.6161C27.7054 18.4139 28.1666 18.2321 28.6363 18.071L34.1837 34.1836H34.1854V34.1853Z" fill="var(--fill-0, white)"/>
<path id="Vector_93" d="M34.1858 34.1854L28.6366 18.0728C29.1046 17.9117 29.5812 17.7711 30.0629 17.6511L34.1858 34.1871V34.1854Z" fill="var(--fill-0, white)"/>
<path id="Vector_94" d="M34.1854 34.185L30.0625 17.649C30.5443 17.529 31.0294 17.4296 31.5197 17.3525L34.1854 34.185Z" fill="var(--fill-0, white)"/>
<path id="Vector_95" d="M34.1851 34.1853L31.5194 17.3544C32.0097 17.2773 32.5017 17.2207 32.9971 17.1864L34.1851 34.187V34.1853Z" fill="var(--fill-0, white)"/>
<path id="Vector_96" d="M34.1849 34.1854L32.9969 17.1848C33.4924 17.1505 33.9878 17.1368 34.4832 17.1454L34.1849 34.1836V34.1854Z" fill="var(--fill-0, white)"/>
<path id="Vector_97" d="M34.1857 34.1852L34.484 17.1469C34.9794 17.1554 35.4748 17.1863 35.9685 17.2377L34.1874 34.1852H34.1857Z" fill="var(--fill-0, white)"/>
<path id="Vector_98" d="M34.1857 34.1854L35.9668 17.2379C36.4605 17.2894 36.9508 17.3631 37.4377 17.4574L34.1857 34.1854Z" fill="var(--fill-0, white)"/>
<path id="Vector_99" d="M34.1857 34.1856L37.4377 17.4576C37.9245 17.5519 38.4062 17.6685 38.8828 17.8039L34.1857 34.1856Z" fill="var(--fill-0, white)"/>
<path id="Vector_100" d="M34.1855 34.1855L38.8827 17.8038C39.3592 17.9409 39.8289 18.0987 40.2918 18.2752L34.1838 34.1855H34.1855Z" fill="var(--fill-0, white)"/>
<path id="Vector_101" d="M34.1855 34.1855L40.2918 18.2753C40.7547 18.4535 41.2089 18.6507 41.6547 18.8684L34.1838 34.1855H34.1855Z" fill="var(--fill-0, white)"/>
<path id="Vector_102" d="M34.1857 34.1857L41.6565 18.8685C42.1022 19.0863 42.5377 19.3228 42.9628 19.5783L34.1857 34.1857Z" fill="var(--fill-0, white)"/>
<path id="Vector_103" d="M34.1857 34.1851L42.9628 19.5777C43.388 19.8331 43.8011 20.1074 44.2022 20.3988L34.1857 34.1851Z" fill="var(--fill-0, white)"/>
<path id="Vector_104" d="M34.1857 34.1856L44.2022 20.3993C44.6034 20.6908 44.9908 20.9993 45.3662 21.325L34.1857 34.1856Z" fill="var(--fill-0, white)"/>
<path id="Vector_105" d="M34.1857 34.185L45.3662 21.3228C45.74 21.6485 46.1 21.9896 46.4446 22.3462L34.1857 34.1833V34.185Z" fill="var(--fill-0, white)"/>
<path id="Vector_106" d="M34.1857 34.1855L46.4446 22.3467C46.7892 22.7032 47.1183 23.0752 47.4303 23.4609L34.1857 34.1855Z" fill="var(--fill-0, white)"/>
<path id="Vector_107" d="M34.1857 34.1855L47.4286 23.4609C47.7406 23.8466 48.0353 24.2444 48.3132 24.6558L34.1857 34.1855Z" fill="var(--fill-0, white)"/>
<path id="Vector_108" d="M34.1855 34.1853L48.313 24.6556C48.5907 25.067 48.8496 25.4887 49.0896 25.9224L34.1838 34.1836H34.1855V34.1853Z" fill="var(--fill-0, white)"/>
<path id="Vector_109" d="M34.1857 34.185L49.0913 25.9239C49.3313 26.3576 49.5526 26.8016 49.7549 27.2542L34.1874 34.185H34.1857Z" fill="var(--fill-0, white)"/>
<path id="Vector_110" d="M34.1857 34.1853L49.753 27.2545C49.9553 27.707 50.137 28.1682 50.2983 28.6379L34.1857 34.1853Z" fill="var(--fill-0, white)"/>
<path id="Vector_111" d="M34.1855 34.1854L50.298 28.6379C50.4593 29.1059 50.5997 29.5825 50.7197 30.0642L34.1838 34.1871L34.1855 34.1854Z" fill="var(--fill-0, white)"/>
<path id="Vector_112" d="M34.1857 34.1851L50.7216 30.0623C50.8416 30.544 50.9412 31.0291 51.0183 31.5194L34.1857 34.1851Z" fill="var(--fill-0, white)"/>
<path id="Vector_113" d="M34.1855 34.1851L51.0163 31.5194C51.0936 32.0097 51.15 32.5017 51.1843 32.9971L34.1838 34.1851H34.1855Z" fill="var(--fill-0, white)"/>
<path id="Vector_114" d="M34.1857 34.1853L51.1863 32.9973C51.2206 33.4928 51.2343 33.9882 51.2256 34.4836L34.1874 34.1853H34.1857Z" fill="var(--fill-0, white)"/>
<path id="Vector_115" d="M34.1857 34.1853L51.2239 34.4836C51.2153 34.979 51.1846 35.4744 51.1332 35.9681L34.1857 34.187V34.1853Z" fill="var(--fill-0, white)"/>
<path id="Vector_116" d="M34.1857 34.1853L51.1332 35.9664C51.0816 36.4601 51.0079 36.9504 50.9136 37.4373L34.1857 34.1853Z" fill="var(--fill-0, white)"/>
<path id="Vector_117" d="M34.1857 34.1853L50.9136 37.4373C50.8193 37.9241 50.7029 38.4058 50.5673 38.8824L34.1857 34.1853Z" fill="var(--fill-0, white)"/>
<path id="Vector_118" d="M34.1857 34.1857L50.5673 38.8828C50.4303 39.3594 50.2726 39.8291 50.0959 40.2919L34.1857 34.1839V34.1857Z" fill="var(--fill-0, white)"/>
<path id="Vector_119" d="M34.1857 34.1853L50.0959 40.2933C49.9176 40.7561 49.7206 41.2104 49.5029 41.6561L34.1857 34.1853Z" fill="var(--fill-0, white)"/>
<path id="Vector_120" d="M34.1857 34.1853L49.5029 41.6561C49.285 42.1018 49.0486 42.5373 48.793 42.9624L34.1857 34.1853Z" fill="var(--fill-0, white)"/>
<path id="Vector_121" d="M34.1857 34.1853L48.793 42.9624C48.5376 43.3876 48.2633 43.8007 47.9719 44.2018L34.1857 34.1853Z" fill="var(--fill-0, white)"/>
<path id="Vector_122" d="M34.1857 34.1853L47.9719 44.2018C47.6806 44.603 47.3719 44.9904 47.0463 45.3658L34.1857 34.1853Z" fill="var(--fill-0, white)"/>
<path id="Vector_123" d="M34.1857 34.1853L47.0463 45.3658C46.7206 45.7396 46.3793 46.0996 46.0228 46.444L34.1857 34.1853Z" fill="var(--fill-0, white)"/>
<path id="Vector_124" d="M34.1857 34.1853L46.0228 46.444C45.6662 46.7887 45.2942 47.1179 44.9102 47.4299L34.1857 34.1853Z" fill="var(--fill-0, white)"/>
<path id="Vector_125" d="M34.1857 34.1853L44.9102 47.4299C44.5245 47.7419 44.1268 48.0367 43.7154 48.3143L34.1857 34.187V34.1853Z" fill="var(--fill-0, white)"/>
<path id="Vector_126" d="M34.1857 34.1857L43.7154 48.3131C43.304 48.5908 42.8822 48.8495 42.4485 49.0895L34.1874 34.1839H34.1857V34.1857Z" fill="var(--fill-0, white)"/>
<path id="Vector_127" d="M34.1857 34.1853L42.4468 49.091C42.0131 49.331 41.5691 49.552 41.1165 49.7543L34.1857 34.187V34.1853Z" fill="var(--fill-0, white)"/>
<path id="Vector_128" d="M34.1857 34.1853L41.1165 49.7527C40.664 49.955 40.2028 50.1367 39.7331 50.2979L34.1857 34.1853Z" fill="var(--fill-0, white)"/>
<path id="Vector_129" d="M34.1855 34.1857L39.7329 50.2982C39.2632 50.4595 38.7884 50.5999 38.3067 50.7199L34.1838 34.1839H34.1855V34.1857Z" fill="var(--fill-0, white)"/>
<path id="Vector_130" d="M34.1857 34.1853L38.3085 50.7213C37.8268 50.8413 37.3417 50.9407 36.8514 51.0179L34.1857 34.187V34.1853Z" fill="var(--fill-0, white)"/>
<path id="Vector_131" d="M34.1857 34.1853L36.8514 51.0179C36.3611 51.095 35.8691 51.1516 35.3737 51.1859L34.1857 34.1853Z" fill="var(--fill-0, white)"/>
<path id="Vector_132" d="M34.1849 34.1853L35.3729 51.1859C34.8775 51.22 34.382 51.2339 33.8866 51.2253L34.1849 34.187V34.1853Z" fill="var(--fill-0, white)"/>
<path id="Vector_133" d="M34.1854 34.1853L33.8871 51.2236C33.3917 51.215 32.8963 51.184 32.4025 51.1327L34.1837 34.1853H34.1854Z" fill="var(--fill-0, white)"/>
<path id="Vector_134" d="M34.1855 34.1853L32.4043 51.1327C31.9106 51.0813 31.4203 51.0076 30.9335 50.9133L34.1855 34.1853Z" fill="var(--fill-0, white)"/>
<path id="Vector_135" d="M34.185 34.1853L30.933 50.9133C30.4462 50.819 29.9644 50.7023 29.4879 50.567L34.185 34.1853Z" fill="var(--fill-0, white)"/>
<path id="Vector_136" d="M34.1851 34.1853L29.4879 50.567C29.0114 50.4299 28.5417 50.272 28.0788 50.0956L34.1868 34.1853H34.1851Z" fill="var(--fill-0, white)"/>
<path id="Vector_137" d="M34.1856 34.1853L28.0776 50.0956C27.6147 49.9173 27.1605 49.72 26.7147 49.5023L34.1856 34.1853Z" fill="var(--fill-0, white)"/>
<path id="Vector_138" d="M34.185 34.1853L26.7142 49.5023C26.2684 49.2847 25.833 49.048 25.4079 48.7927L34.185 34.1853Z" fill="var(--fill-0, white)"/>
<path id="Vector_139" d="M34.1851 34.1853L25.4079 48.7927C24.9828 48.5373 24.5696 48.263 24.1685 47.9716L34.1851 34.1853Z" fill="var(--fill-0, white)"/>
<path id="Vector_140" d="M34.1855 34.1853L24.1672 47.9716C23.766 47.68 23.3786 47.3716 23.0032 47.0459L34.1837 34.1853H34.1855Z" fill="var(--fill-0, white)"/>
<path id="Vector_141" d="M34.1858 34.1853L23.0052 47.0459C22.6315 46.72 22.2715 46.379 21.9269 46.0224L34.1858 34.1853Z" fill="var(--fill-0, white)"/>
<path id="Vector_142" d="M34.1852 34.1853L21.9264 46.0224C21.5818 45.6658 21.2527 45.2938 20.9407 44.9098L34.1852 34.1853Z" fill="var(--fill-0, white)"/>
<path id="Vector_143" d="M34.1858 34.1853L20.9412 44.9098C20.6292 44.5241 20.3343 44.1264 20.0566 43.715L34.184 34.1853H34.1858Z" fill="var(--fill-0, white)"/>
<path id="Vector_144" d="M34.1851 34.1853L20.056 43.715C19.7783 43.3036 19.5194 42.8801 19.2794 42.4464L34.1851 34.1853Z" fill="var(--fill-0, white)"/>
</g>
</g>
<defs>
<filter id="filter0_f_3278_12212" x="1.33675e-07" y="2.65103e-07" width="68.371" height="68.3707" filterUnits="userSpaceOnUse" color-interpolation-filters="sRGB">
<feFlood flood-opacity="0" result="BackgroundImageFix"/>
<feBlend mode="normal" in="SourceGraphic" in2="BackgroundImageFix" result="shape"/>
<feGaussianBlur stdDeviation="8.57143" result="effect1_foregroundBlur_3278_12212"/>
</filter>
</defs>
</svg>
