<svg preserveAspectRatio="none" width="100%" height="100%" overflow="visible" style="display: block;" viewBox="0 0 23.9726 23.8805" fill="none" xmlns="http://www.w3.org/2000/svg">
<g id="Group">
<path id="Vector" d="M12.1817 0C18.7903 0 23.9726 5.36056 23.9726 11.9726C23.9726 18.5846 18.6257 23.8149 12.2451 23.8149C9.98057 23.8149 8.88343 23.496 7.116 22.2446C6.9943 22.1589 6.828 22.1811 6.72514 22.2909C5.3657 23.7411 1.884 24.7594 1.72457 22.7794C1.72457 19.3269 0 17.0846 0 11.9074C0 5.11029 5.57314 0 12.1817 0ZM12.3669 5.892C9.23143 5.72743 6.78343 7.90456 6.24343 11.3091C5.796 14.1292 6.588 17.5663 7.26686 17.7394C7.55486 17.8132 8.2457 17.2834 8.7497 16.8086C8.844 16.7194 8.988 16.704 9.0977 16.7726C9.88286 17.2526 10.7709 17.6126 11.7497 17.664C14.9691 17.832 17.8217 15.312 17.9914 12.0926C18.1594 8.87313 15.5863 6.05829 12.3669 5.89029V5.892Z" fill="var(--fill-0, white)"/>
</g>
</svg>
