<svg preserveAspectRatio="none" width="14.2382" height="24.4404" overflow="visible" style="display: block;" viewBox="0 0 14.2382 24.4404" fill="none" xmlns="http://www.w3.org/2000/svg">
<path id="Icon" d="M11.4394 13.2373C12.1815 12.6427 13.2644 12.7622 13.8593 13.5039C14.4543 14.2459 14.3356 15.3298 13.5937 15.9248C13.5125 15.9899 11.9927 17.1897 9.45793 17.7061L13.2861 21.5C13.9586 22.172 13.9588 23.2617 13.287 23.9346C12.6151 24.6075 11.5257 24.6086 10.8525 23.9365L7.13664 20.3184L3.76164 23.9131C3.42375 24.2636 2.97259 24.4404 2.5214 24.4404C2.09118 24.4403 1.66018 24.2801 1.32609 23.958C0.641622 23.2978 0.622018 22.2071 1.28215 21.5225L4.91496 17.7266C2.30836 17.2222 0.725933 15.9902 0.644452 15.9248C-0.0973985 15.3298 -0.216153 14.2459 0.378827 13.5039C0.973761 12.762 2.0576 12.6424 2.79973 13.2373C2.81883 13.2526 4.47311 14.4933 7.13664 14.4951C9.80285 14.4932 11.4237 13.25 11.4394 13.2373ZM7.22258 0C10.7204 0.000141723 13.5556 2.8353 13.5556 6.33301C13.5556 9.83083 10.7204 12.6669 7.22258 12.667C3.72467 12.667 0.888592 9.83092 0.888592 6.33301C0.888618 2.83521 3.72468 0 7.22258 0ZM7.22258 3.71484C5.77671 3.71484 4.60449 4.88716 4.60441 6.33301C4.60441 7.77892 5.77666 8.95117 7.22258 8.95117C8.66837 8.95103 9.84074 7.77883 9.84074 6.33301C9.84067 4.88724 8.66832 3.71499 7.22258 3.71484Z" fill="var(--fill-0, white)"/>
</svg>
