<svg preserveAspectRatio="none" width="24.015" height="14.696" overflow="visible" style="display: block;" viewBox="0 0 24.015 14.696" fill="none" xmlns="http://www.w3.org/2000/svg">
<path id="Vector" d="M13.0718 14.6814C4.87196 14.6814 0.194878 9.17584 0 0H4.10743C4.24235 6.72406 7.27046 9.54288 9.66896 10.1595V0.0146817H13.5365V5.81381C15.9051 5.56423 18.3935 2.92159 19.233 0.0146817H23.1006C22.7898 1.52632 22.1633 2.95871 21.2604 4.22195C20.3575 5.48518 19.1977 6.55197 17.8538 7.35536C19.3521 8.08314 20.6758 9.11363 21.7378 10.3789C22.7998 11.6442 23.5759 13.1156 24.015 14.696H19.7427C19.3507 13.3207 18.5525 12.0894 17.4483 11.1569C16.3441 10.2244 14.9832 9.63225 13.5365 9.45479V14.696L13.0718 14.6814Z" fill="var(--fill-0, white)"/>
</svg>
