<svg preserveAspectRatio="none" width="329" height="429" overflow="visible" style="display: block;" viewBox="0 0 329 429" fill="none" xmlns="http://www.w3.org/2000/svg">
<g id="Mask group">
<mask id="mask0_3220_26764" style="mask-type:alpha" maskUnits="userSpaceOnUse" x="0" y="0" width="329" height="429">
<rect id="Rectangle 240648477" width="329" height="429" rx="20" fill="var(--fill-0, #161F26)"/>
</mask>
<g mask="url(#mask0_3220_26764)">
<ellipse id="Ellipse 348" cx="40.7816" cy="392.5" rx="295.398" ry="294.5" transform="rotate(-180 40.7816 392.5)" fill="var(--fill-0, #EF3E4A)"/>
<path id="Ellipse 331 (Stroke)" d="M-323.724 392.5C-323.725 593.199 -160.53 755.898 40.7816 755.898C242.093 755.898 405.288 593.199 405.288 392.5C405.288 191.801 242.093 29.1018 40.7817 29.1018C-160.529 29.1018 -323.724 191.801 -323.724 392.5ZM-446.199 392.5C-446.198 124.366 -228.17 -93 40.7817 -93C309.733 -93 527.762 124.366 527.762 392.5C527.762 660.634 309.733 878 40.7816 878C-228.17 878 -446.199 660.634 -446.199 392.5Z" fill="var(--fill-0, #EF3E4A)"/>
</g>
</g>
</svg>
