<svg preserveAspectRatio="none" width="22.6667" height="17.3333" overflow="visible" style="display: block;" viewBox="0 0 22.6667 17.3333" fill="none" xmlns="http://www.w3.org/2000/svg">
<path id="Icon" fill-rule="evenodd" clip-rule="evenodd" d="M6.23799 5.48896C4.25087 6.29004 2.20921 7.11317 0.342232 8.06268C-0.632628 8.72174 0.663028 9.18795 1.8786 9.62524C2.07184 9.69476 2.26302 9.76352 2.44278 9.8322C2.59238 9.87471 2.74446 9.91943 2.89861 9.96476C4.25054 10.3624 5.75794 10.8059 7.07045 10.1388C9.22651 8.99526 11.2611 7.67317 13.2943 6.35208C13.9604 5.91922 14.6263 5.48651 15.2963 5.06022C15.3277 5.04167 15.3631 5.02046 15.4018 4.99733C15.9725 4.65567 17.2562 3.8874 16.7814 4.94605C15.6586 6.07979 14.456 7.08333 13.2468 8.09245C12.4319 8.77249 11.614 9.45505 10.8156 10.1816C10.1202 10.7033 9.39809 11.7524 10.1768 12.4829C11.9702 13.6422 13.7917 14.7733 15.6121 15.9038C16.2045 16.2717 16.7968 16.6395 17.3879 17.0083C18.3899 17.7468 19.9557 17.1494 20.176 15.9953C20.2739 15.4643 20.3723 14.9335 20.4706 14.4026C21.0141 11.4685 21.5578 8.53332 22.0381 5.58969C22.1034 5.12791 22.1774 4.6662 22.2514 4.20427C22.4309 3.08465 22.6105 1.96365 22.6667 0.838005C22.522 -0.285354 21.0469 -0.0383218 20.226 0.214281C16.0064 1.69678 11.829 3.28917 7.66819 4.90965C7.19683 5.10242 6.71902 5.29504 6.23799 5.48896Z" fill="var(--fill-0, white)"/>
</svg>
