<svg preserveAspectRatio="none" width="249.131" height="61" overflow="visible" style="display: block;" viewBox="0 0 249.131 61" fill="none" xmlns="http://www.w3.org/2000/svg">
<g id="Frame 11">
<g id="&#208;&#161;&#208;&#184;&#209;&#130;&#209;&#131;&#208;&#176;&#209;&#134;&#208;&#184;&#208;&#190;&#208;&#189;&#208;&#189;&#209;&#139;&#208;&#185; &#209;&#134;&#208;&#181;&#208;&#189;&#209;&#130;&#209;&#128; &#208;&#179;&#209;&#128;&#208;&#176;&#208;&#180;&#208;&#190;&#209;&#129;&#209;&#130;&#209;&#128;&#208;&#190;&#208;&#184;&#209;&#130;&#208;&#181;&#208;&#187;&#209;&#140;&#208;&#189;&#208;&#190;&#208;&#179;&#208;&#190; &#208;&#186;&#208;&#190;&#208;&#188;&#208;&#191;&#208;&#187;&#208;&#181;&#208;&#186;&#209;&#129;&#208;&#176; &#208;&#156;&#208;&#190;&#209;&#129;&#208;&#186;&#208;&#178;&#209;&#139;">
<path id="Vector" d="M148.373 47.6963V43.0991H149.258V44.6862H150.425C151.602 44.6862 152.25 45.2152 152.25 46.1821C152.25 47.1581 151.602 47.6963 150.425 47.6963H148.373ZM153.107 47.6963V43.0991H153.983V47.6963H153.107ZM149.258 46.9666H150.352C151 46.9666 151.365 46.6929 151.365 46.1821C151.365 45.6804 151 45.4068 150.352 45.4068H149.258V46.9666Z" fill="var(--fill-0, #08131b)"/>
<path id="Vector_2" d="M143.465 47.6963V43.0991H145.681C146.584 43.0991 147.123 43.546 147.123 44.2666C147.123 44.7136 146.895 45.0237 146.584 45.1879C147.068 45.3429 147.387 45.7078 147.387 46.3281C147.387 47.1581 146.84 47.6963 145.736 47.6963H143.465ZM145.627 47.0122C146.192 47.0122 146.502 46.7659 146.502 46.3189C146.502 45.8537 146.192 45.6348 145.627 45.6348H144.313V47.0122H145.627ZM145.535 44.969C146.028 44.969 146.283 44.7592 146.283 44.3487C146.283 43.9565 146.028 43.7832 145.535 43.7832H144.313V44.969H145.535Z" fill="var(--fill-0, #08131b)"/>
<path id="Vector_3" d="M138.673 47.6963V43.0991H139.557V45.124L141.61 43.0991H142.722L140.752 45.0328L142.887 47.6963H141.774L140.15 45.6257L139.557 46.2095V47.6963H138.673Z" fill="var(--fill-0, #08131b)"/>
<path id="Vector_4" d="M135.574 47.7693C134.133 47.7693 133.303 46.6656 133.303 45.3977C133.303 44.1298 134.133 43.0261 135.574 43.0261C136.651 43.0261 137.581 43.6646 137.709 44.7044H136.824C136.742 44.1845 136.222 43.8014 135.593 43.8014C134.68 43.8014 134.224 44.5129 134.224 45.3977C134.224 46.2825 134.689 46.9939 135.602 46.9939C136.231 46.9939 136.687 46.6656 136.833 46.1456H137.709C137.563 47.1125 136.751 47.7693 135.574 47.7693Z" fill="var(--fill-0, #08131b)"/>
<path id="Vector_5" d="M130.259 47.7693C128.881 47.7693 127.887 46.775 127.887 45.3977C127.887 44.0203 128.881 43.0261 130.259 43.0261C131.636 43.0261 132.621 44.0203 132.621 45.3977C132.621 46.775 131.636 47.7693 130.259 47.7693ZM130.259 46.9939C131.125 46.9939 131.718 46.3372 131.718 45.3977C131.718 44.4582 131.125 43.8014 130.259 43.8014C129.383 43.8014 128.79 44.4582 128.79 45.3977C128.79 46.3372 129.383 46.9939 130.259 46.9939Z" fill="var(--fill-0, #08131b)"/>
<path id="Vector_6" d="M120.485 47.6963V41.3112H121.652L123.687 46.401L125.721 41.3112H126.888V47.6963H125.976V42.944L124.07 47.6963H123.303L121.388 42.944V47.6963H120.485Z" fill="var(--fill-0, #08131b)"/>
<path id="Vector_7" d="M114.689 47.7693C113.749 47.7693 113.12 47.2037 113.12 46.3828C113.12 45.498 113.832 44.9142 114.908 44.9142H115.875C116.085 44.9142 116.185 44.8413 116.185 44.6771C116.185 44.1207 115.774 43.7376 115.072 43.7376C114.424 43.7376 113.968 44.1389 113.941 44.6041H113.12C113.193 43.7011 114.005 43.0261 115.099 43.0261C116.285 43.0261 117.061 43.7102 117.061 44.7318V47.6963H116.185V46.9392C115.957 47.4409 115.382 47.7693 114.689 47.7693ZM114.862 47.0669C115.692 47.0669 116.185 46.5287 116.185 45.6804V45.5983H114.999C114.397 45.5983 114.005 45.8811 114.005 46.3646C114.005 46.7841 114.342 47.0669 114.862 47.0669Z" fill="var(--fill-0, #08131b)"/>
<path id="Vector_8" d="M110.241 47.7693C108.8 47.7693 107.969 46.6656 107.969 45.3977C107.969 44.1298 108.8 43.0261 110.241 43.0261C111.317 43.0261 112.247 43.6646 112.375 44.7044H111.49C111.408 44.1845 110.888 43.8014 110.259 43.8014C109.347 43.8014 108.891 44.5129 108.891 45.3977C108.891 46.2825 109.356 46.9939 110.268 46.9939C110.897 46.9939 111.354 46.6656 111.5 46.1456H112.375C112.229 47.1125 111.417 47.7693 110.241 47.7693Z" fill="var(--fill-0, #08131b)"/>
<path id="Vector_9" d="M103.728 47.6963V43.0991H104.612V45.124L106.665 43.0991H107.778L105.807 45.0328L107.942 47.6963H106.829L105.205 45.6257L104.612 46.2095V47.6963H103.728Z" fill="var(--fill-0, #08131b)"/>
<path id="Vector_10" d="M100.612 47.7693C99.189 47.7693 98.3133 46.6473 98.3133 45.3703C98.3133 44.0842 99.116 43.0261 100.53 43.0261C101.944 43.0261 102.701 44.0386 102.701 45.2061C102.701 45.3247 102.692 45.4798 102.683 45.5619H99.1799C99.2528 46.4193 99.8184 47.0122 100.612 47.0122C101.287 47.0122 101.725 46.7203 101.852 46.2004H102.737C102.582 47.149 101.752 47.7693 100.612 47.7693ZM99.2072 44.8777H101.807C101.752 44.1754 101.287 43.7376 100.53 43.7376C99.8184 43.7376 99.3441 44.1298 99.2072 44.8777Z" fill="var(--fill-0, #08131b)"/>
<path id="Vector_11" d="M92.8953 47.6963V46.9027H93.1598C93.4426 46.9027 93.5612 46.7659 93.5794 46.2916C93.625 45.2152 93.6524 44.1754 93.6706 43.0991H97.3375V47.6963H96.4527V43.8653H94.4733C94.4551 44.75 94.4368 45.6348 94.4003 46.5196C94.3639 47.3314 94.0081 47.6963 93.3423 47.6963H92.8953Z" fill="var(--fill-0, #08131b)"/>
<path id="Vector_12" d="M91.1163 47.6963V43.8653H88.8724V47.6963H87.9877V43.0991H92.0011V47.6963H91.1163Z" fill="var(--fill-0, #08131b)"/>
<path id="Vector_13" d="M81.5741 47.6963V43.0991H82.6687L84.1372 46.5014L85.5967 43.0991H86.6913V47.6963H85.8521V44.3122L84.4018 47.6963H83.8636L82.4042 44.3122V47.6963H81.5741Z" fill="var(--fill-0, #08131b)"/>
<path id="Vector_14" d="M78.2286 47.7693C76.8512 47.7693 75.857 46.775 75.857 45.3977C75.857 44.0203 76.8512 43.0261 78.2286 43.0261C79.6059 43.0261 80.591 44.0203 80.591 45.3977C80.591 46.775 79.6059 47.7693 78.2286 47.7693ZM78.2286 46.9939C79.0951 46.9939 79.688 46.3372 79.688 45.3977C79.688 44.4582 79.0951 43.8014 78.2286 43.8014C77.3529 43.8014 76.76 44.4582 76.76 45.3977C76.76 46.3372 77.3529 46.9939 78.2286 46.9939Z" fill="var(--fill-0, #08131b)"/>
<path id="Vector_15" d="M71.6242 47.6963V43.0991H72.509V45.124L74.5613 43.0991H75.6741L73.7039 45.0328L75.8383 47.6963H74.7255L73.1019 45.6257L72.509 46.2095V47.6963H71.6242Z" fill="var(--fill-0, #08131b)"/>
<path id="Vector_16" d="M158.54 36.7693C157.163 36.7693 156.169 35.775 156.169 34.3977C156.169 33.0203 157.163 32.0261 158.54 32.0261C159.918 32.0261 160.903 33.0203 160.903 34.3977C160.903 35.775 159.918 36.7693 158.54 36.7693ZM158.54 35.9939C159.407 35.9939 160 35.3372 160 34.3977C160 33.4582 159.407 32.8014 158.54 32.8014C157.665 32.8014 157.072 33.4582 157.072 34.3977C157.072 35.3372 157.665 35.9939 158.54 35.9939Z" fill="var(--fill-0, #08131b)"/>
<path id="Vector_17" d="M152.738 36.6963V32.0991H155.939V32.8653H153.623V36.6963H152.738Z" fill="var(--fill-0, #08131b)"/>
<path id="Vector_18" d="M149.392 36.7693C148.015 36.7693 147.021 35.775 147.021 34.3977C147.021 33.0203 148.015 32.0261 149.392 32.0261C150.77 32.0261 151.755 33.0203 151.755 34.3977C151.755 35.775 150.77 36.7693 149.392 36.7693ZM149.392 35.9939C150.259 35.9939 150.852 35.3372 150.852 34.3977C150.852 33.4582 150.259 32.8014 149.392 32.8014C148.517 32.8014 147.924 33.4582 147.924 34.3977C147.924 35.3372 148.517 35.9939 149.392 35.9939Z" fill="var(--fill-0, #08131b)"/>
<path id="Vector_19" d="M145.152 36.6963V34.6896H142.844V36.6963H141.959V32.0991H142.844V33.9234H145.152V32.0991H146.037V36.6963H145.152Z" fill="var(--fill-0, #08131b)"/>
<path id="Vector_20" d="M137.221 36.6963V32.0991H138.105V33.6862H139.273C140.45 33.6862 141.097 34.2152 141.097 35.1821C141.097 36.1581 140.45 36.6963 139.273 36.6963H137.221ZM138.105 35.9666H139.2C139.848 35.9666 140.212 35.6929 140.212 35.1821C140.212 34.6804 139.848 34.4068 139.2 34.4068H138.105V35.9666Z" fill="var(--fill-0, #08131b)"/>
<path id="Vector_21" d="M131.492 36.6963V35.9027H131.757C132.04 35.9027 132.158 35.7659 132.177 35.2916C132.222 34.2152 132.249 33.1754 132.268 32.0991H135.935V36.6963H135.05V32.8653H133.07C133.052 33.75 133.034 34.6348 132.997 35.5196C132.961 36.3314 132.605 36.6963 131.939 36.6963H131.492Z" fill="var(--fill-0, #08131b)"/>
<path id="Vector_22" d="M128.832 36.7693C127.409 36.7693 126.533 35.6473 126.533 34.3703C126.533 33.0842 127.336 32.0261 128.749 32.0261C130.163 32.0261 130.92 33.0386 130.92 34.2061C130.92 34.3247 130.911 34.4798 130.902 34.5619H127.399C127.472 35.4193 128.038 36.0122 128.832 36.0122C129.507 36.0122 129.944 35.7203 130.072 35.2004H130.957C130.802 36.149 129.972 36.7693 128.832 36.7693ZM127.427 33.8778H130.026C129.972 33.1754 129.507 32.7376 128.749 32.7376C128.038 32.7376 127.564 33.1298 127.427 33.8778Z" fill="var(--fill-0, #08131b)"/>
<path id="Vector_23" d="M123.733 36.6963V32.8653H122.091V32.0991H126.269V32.8653H124.618V36.6963H123.733Z" fill="var(--fill-0, #08131b)"/>
<path id="Vector_24" d="M117.249 36.6963V32.0991H118.107V35.5105L120.415 32.0991H121.345V36.6963H120.488V33.2849L118.189 36.6963H117.249Z" fill="var(--fill-0, #08131b)"/>
<path id="Vector_25" d="M113.904 36.7693C112.527 36.7693 111.532 35.775 111.532 34.3977C111.532 33.0203 112.527 32.0261 113.904 32.0261C115.281 32.0261 116.266 33.0203 116.266 34.3977C116.266 35.775 115.281 36.7693 113.904 36.7693ZM113.904 35.9939C114.77 35.9939 115.363 35.3372 115.363 34.3977C115.363 33.4582 114.77 32.8014 113.904 32.8014C113.028 32.8014 112.435 33.4582 112.435 34.3977C112.435 35.3372 113.028 35.9939 113.904 35.9939Z" fill="var(--fill-0, #08131b)"/>
<path id="Vector_26" d="M106.302 38.5571V32.0991H107.187V32.7741C107.469 32.318 108.044 32.0261 108.655 32.0261C110.042 32.0261 110.835 33.0386 110.835 34.3977C110.835 35.7568 110.042 36.7693 108.664 36.7693C108.044 36.7693 107.46 36.4683 107.187 36.0122V38.5571H106.302ZM108.528 35.9939C109.376 35.9939 109.941 35.3554 109.941 34.3977C109.941 33.4399 109.376 32.8014 108.528 32.8014C107.679 32.8014 107.114 33.4399 107.114 34.3977C107.114 35.3554 107.679 35.9939 108.528 35.9939Z" fill="var(--fill-0, #08131b)"/>
<path id="Vector_27" d="M103.014 36.6963V32.8653H101.372V32.0991H105.55V32.8653H103.899V36.6963H103.014Z" fill="var(--fill-0, #08131b)"/>
<path id="Vector_28" d="M98.9547 36.7693C97.5135 36.7693 96.6834 35.6656 96.6834 34.3977C96.6834 33.1298 97.5135 32.0261 98.9547 32.0261C100.031 32.0261 100.961 32.6646 101.089 33.7044H100.204C100.122 33.1845 99.6023 32.8014 98.9729 32.8014C98.0608 32.8014 97.6047 33.5129 97.6047 34.3977C97.6047 35.2825 98.0699 35.9939 98.982 35.9939C99.6114 35.9939 100.068 35.6656 100.213 35.1456H101.089C100.943 36.1125 100.131 36.7693 98.9547 36.7693Z" fill="var(--fill-0, #08131b)"/>
<path id="Vector_29" d="M93.6389 36.7693C92.2616 36.7693 91.2673 35.775 91.2673 34.3977C91.2673 33.0203 92.2616 32.0261 93.6389 32.0261C95.0163 32.0261 96.0014 33.0203 96.0014 34.3977C96.0014 35.775 95.0163 36.7693 93.6389 36.7693ZM93.6389 35.9939C94.5055 35.9939 95.0984 35.3372 95.0984 34.3977C95.0984 33.4582 94.5055 32.8014 93.6389 32.8014C92.7633 32.8014 92.1704 33.4582 92.1704 34.3977C92.1704 35.3372 92.7633 35.9939 93.6389 35.9939Z" fill="var(--fill-0, #08131b)"/>
<path id="Vector_30" d="M85.6258 37.8638V35.9301H85.8173C86.1639 35.9301 86.3828 35.6382 86.4011 34.7808L86.4558 32.0991H90.0953V35.9301H90.7247V37.8638H89.8764V36.6963H86.4741V37.8638H85.6258ZM86.9301 35.9301H89.2105V32.8653H87.2676L87.2403 34.8264C87.2311 35.401 87.0852 35.7112 86.9301 35.9301Z" fill="var(--fill-0, #08131b)"/>
<path id="Vector_31" d="M82.4609 36.7693C81.5214 36.7693 80.892 36.2037 80.892 35.3828C80.892 34.498 81.6035 33.9142 82.6798 33.9142H83.6467C83.8565 33.9142 83.9568 33.8413 83.9568 33.6771C83.9568 33.1207 83.5463 32.7376 82.844 32.7376C82.1964 32.7376 81.7403 33.1389 81.7129 33.6041H80.892C80.965 32.7011 81.7768 32.0261 82.8713 32.0261C84.0571 32.0261 84.8325 32.7102 84.8325 33.7318V36.6963H83.9568V35.9392C83.7288 36.4409 83.1541 36.7693 82.4609 36.7693ZM82.6342 36.0669C83.4642 36.0669 83.9568 35.5287 83.9568 34.6804V34.5983H82.771C82.169 34.5983 81.7768 34.8811 81.7768 35.3646C81.7768 35.7841 82.1143 36.0669 82.6342 36.0669Z" fill="var(--fill-0, #08131b)"/>
<path id="Vector_32" d="M75.5703 38.5571V32.0991H76.4551V32.7741C76.7379 32.318 77.3125 32.0261 77.9237 32.0261C79.3101 32.0261 80.1037 33.0386 80.1037 34.3977C80.1037 35.7568 79.3101 36.7693 77.9328 36.7693C77.3125 36.7693 76.7287 36.4683 76.4551 36.0122V38.5571H75.5703ZM77.796 35.9939C78.6442 35.9939 79.2098 35.3554 79.2098 34.3977C79.2098 33.4399 78.6442 32.8014 77.796 32.8014C76.9477 32.8014 76.3821 33.4399 76.3821 34.3977C76.3821 35.3554 76.9477 35.9939 77.796 35.9939Z" fill="var(--fill-0, #08131b)"/>
<path id="Vector_33" d="M71.6242 36.6963V32.0991H74.8258V32.8653H72.509V36.6963H71.6242Z" fill="var(--fill-0, #08131b)"/>
<path id="Vector_34" d="M239.701 29.2434V16.9328H241.84V17.9935C242.379 17.2632 243.37 16.7937 244.466 16.7937C247.004 16.7937 248.534 18.6542 248.534 21.3146C248.534 23.9749 247.004 25.8354 244.5 25.8354C243.37 25.8354 242.362 25.3485 241.84 24.6009V29.2434H239.701ZM244.066 23.9923C245.474 23.9923 246.413 22.9316 246.413 21.3146C246.413 19.6975 245.474 18.6368 244.066 18.6368C242.64 18.6368 241.701 19.6975 241.701 21.3146C241.701 22.9316 242.64 23.9923 244.066 23.9923Z" fill="var(--fill-0, #08131b)"/>
<path id="Vector_35" d="M233.332 25.6963V18.7238H230.341V16.9328H238.444V18.7238H235.453V25.6963H233.332Z" fill="var(--fill-0, #08131b)"/>
<path id="Vector_36" d="M226.971 25.6963V22.0622H223.111V25.6963H220.972V16.9328H223.111V20.2539H226.971V16.9328H229.092V25.6963H226.971Z" fill="var(--fill-0, #08131b)"/>
<path id="Vector_37" d="M215.189 25.8354C212.32 25.8354 210.738 23.575 210.738 21.2798C210.738 18.9672 212.163 16.7937 215.032 16.7937C217.954 16.7937 219.275 18.9324 219.275 21.019C219.275 21.3146 219.258 21.5928 219.24 21.7666H212.807C212.981 23.1577 213.85 24.0618 215.189 24.0618C216.284 24.0618 217.015 23.6097 217.223 22.7751H219.31C218.997 24.6356 217.362 25.8354 215.189 25.8354ZM212.859 20.3061H217.154C217.067 19.1932 216.302 18.4108 215.032 18.4108C213.85 18.4108 213.102 19.0715 212.859 20.3061Z" fill="var(--fill-0, #08131b)"/>
<path id="Vector_38" d="M207.792 27.8524V25.6963H200.681V16.9328H202.819V23.888H206.558V16.9328H208.679V23.888H209.844V27.8524H207.792Z" fill="var(--fill-0, #08131b)"/>
<path id="Vector_39" d="M186.587 25.6963V16.9328H188.639V22.8273L192.551 16.9328H194.724V25.6963H192.673V19.8018L188.778 25.6963H186.587ZM190.638 16.0113C188.899 16.0113 187.839 14.968 187.839 13.5248H189.525C189.525 14.2551 189.925 14.6898 190.638 14.6898C191.369 14.6898 191.786 14.2551 191.786 13.5248H193.472C193.472 14.968 192.394 16.0113 190.638 16.0113Z" fill="var(--fill-0, #08131b)"/>
<path id="Vector_40" d="M173.206 25.6963V16.9328H175.345V19.767H177.275C179.64 19.767 180.909 20.7929 180.909 22.6882C180.909 24.6356 179.64 25.6963 177.275 25.6963H173.206ZM182.335 25.6963V16.9328H184.439V25.6963H182.335ZM175.345 24.0097H177.066C178.162 24.0097 178.788 23.575 178.788 22.6882C178.788 21.8536 178.162 21.4015 177.066 21.4015H175.345V24.0097Z" fill="var(--fill-0, #08131b)"/>
<path id="Vector_41" d="M168.932 25.6963V22.0622H165.072V25.6963H162.933V16.9328H165.072V20.2539H168.932V16.9328H171.053V25.6963H168.932Z" fill="var(--fill-0, #08131b)"/>
<path id="Vector_42" d="M158.659 25.6963V22.0622H154.799V25.6963H152.66V16.9328H154.799V20.2539H158.659V16.9328H160.78V25.6963H158.659Z" fill="var(--fill-0, #08131b)"/>
<path id="Vector_43" d="M146.456 25.8354C143.778 25.8354 141.865 23.9227 141.865 21.3146C141.865 18.7064 143.778 16.7937 146.456 16.7937C149.116 16.7937 151.029 18.7064 151.029 21.3146C151.029 23.9227 149.116 25.8354 146.456 25.8354ZM146.456 23.9923C147.899 23.9923 148.873 22.8968 148.873 21.3146C148.873 19.7323 147.899 18.6368 146.456 18.6368C144.995 18.6368 144.022 19.7323 144.022 21.3146C144.022 22.8968 144.995 23.9923 146.456 23.9923Z" fill="var(--fill-0, #08131b)"/>
<path id="Vector_44" d="M132.097 25.6963V16.9328H134.149V22.8273L138.061 16.9328H140.235V25.6963H138.183V19.8018L134.288 25.6963H132.097Z" fill="var(--fill-0, #08131b)"/>
<path id="Vector_45" d="M128.46 27.8524V25.6963H121.348V16.9328H123.487V23.888H127.226V16.9328H129.347V23.888H130.512V27.8524H128.46Z" fill="var(--fill-0, #08131b)"/>
<path id="Vector_46" d="M114.565 25.8354C112.827 25.8354 111.644 24.7226 111.644 23.1924C111.644 21.5058 112.948 20.4104 115 20.4104H116.478C116.965 20.4104 117.174 20.2365 117.174 19.854C117.174 19.002 116.53 18.4108 115.4 18.4108C114.27 18.4108 113.592 19.1063 113.557 19.8887H111.644C111.748 18.15 113.226 16.7937 115.504 16.7937C117.73 16.7937 119.295 18.0978 119.295 20.0452V25.6963H117.174V24.3922C116.826 25.2616 115.8 25.8354 114.565 25.8354ZM115.07 24.2531C116.391 24.2531 117.174 23.3142 117.174 22.0101V21.871H115.278C114.322 21.871 113.713 22.3404 113.713 23.1055C113.713 23.801 114.252 24.2531 115.07 24.2531Z" fill="var(--fill-0, #08131b)"/>
<path id="Vector_47" d="M104.51 29.2434L105.797 25.7137L102.615 16.9328H104.788L106.805 23.036L108.805 16.9328H110.979L106.562 29.2434H104.51Z" fill="var(--fill-0, #08131b)"/>
<path id="Vector_48" d="M97.1495 25.6963V18.7238H94.1588V16.9328H102.262V18.7238H99.2708V25.6963H97.1495Z" fill="var(--fill-0, #08131b)"/>
<path id="Vector_49" d="M84.7729 25.6963V16.9328H86.8246V22.8273L90.7369 16.9328H92.9104V25.6963H90.8586V19.8018L86.9637 25.6963H84.7729Z" fill="var(--fill-0, #08131b)"/>
<path id="Vector_50" d="M77.723 25.8354C74.4367 25.8354 71.6547 23.7489 71.6547 19.6279C71.6547 15.4722 74.4889 13.3857 77.723 13.3857C80.6268 13.3857 82.8698 15.1245 83.1828 17.6283H80.7833C80.592 16.2895 79.3053 15.3679 77.6883 15.3679C75.5496 15.3679 73.9673 16.8459 73.9673 19.6105C73.9673 22.3752 75.5496 23.8358 77.7057 23.8358C79.3401 23.8358 80.6442 22.9142 80.8355 21.5928H83.1481C82.9046 24.0966 80.679 25.8354 77.723 25.8354Z" fill="var(--fill-0, #08131b)"/>
</g>
<ellipse id="Ellipse 348" cx="30.4999" cy="30.5001" rx="12.5421" ry="12.5421" transform="rotate(-180 30.4999 30.5001)" fill="var(--fill-0, #EF3E4A)"/>
<path id="Ellipse 331 (Stroke)" d="M12.5778 30.5C12.5778 40.3981 20.6018 48.4221 30.4999 48.4221C40.398 48.4221 48.422 40.3981 48.422 30.5C48.422 20.6019 40.398 12.5779 30.4999 12.5779C20.6018 12.5779 12.5778 20.6019 12.5778 30.5ZM6.556 30.5C6.556 17.2762 17.2761 6.55612 30.4999 6.55612C43.7238 6.55612 54.4439 17.2762 54.4439 30.5C54.4438 43.7239 43.7238 54.444 30.4999 54.444C17.2761 54.444 6.55599 43.7239 6.556 30.5Z" fill="var(--fill-0, #EF3E4A)"/>
<path id="Ellipse 332 (Stroke)" d="M2.57746 30.5C2.57746 45.9212 15.0788 58.4225 30.5 58.4225C45.9212 58.4225 58.4225 45.9212 58.4225 30.5C58.4225 15.0788 45.9212 2.57747 30.5 2.57747C15.0788 2.57746 2.57747 15.0788 2.57746 30.5ZM-1.13249e-06 30.5C1.52112e-06 13.6553 13.6553 -7.19002e-08 30.5 1.40071e-06C47.3447 4.05431e-06 61 13.6553 61 30.5C61 47.3447 47.3447 61 30.5 61C13.6553 61 -2.6051e-06 47.3447 -1.13249e-06 30.5Z" fill="var(--fill-0, #EF3E4A)"/>
</g>
</svg>
